<svg
  width="24"
  height="24"
  viewBox="0 0 24 24"
  fill="none"
  xmlns="http://www.w3.org/2000/svg"
>
  <path
    d="M12.0047 14.0878H9.0577C8.8361 14.0878 8.6721 13.9908 8.5657 13.7967C8.4594 13.6026 8.4747 13.4129 8.6117 13.2276L14.9249 4.28323C15.0184 4.16003 15.1354 4.07553 15.2757 4.02973C15.416 3.98395 15.5564 3.99104 15.6967 4.051C15.837 4.10551 15.9481 4.1971 16.03 4.32575C16.1118 4.45441 16.1411 4.59179 16.1177 4.73788L15.3542 10.6861H18.9255C19.1672 10.6861 19.3376 10.7902 19.4367 10.9985C19.5358 11.2067 19.5096 11.4035 19.3582 11.5889L12.4035 19.758C12.3099 19.8725 12.1893 19.9469 12.0418 19.9812C11.8942 20.0156 11.7575 20.0028 11.6316 19.9428C11.5002 19.8883 11.3986 19.7994 11.3267 19.6762C11.2549 19.553 11.2279 19.4156 11.2457 19.2641L12.0047 14.0878Z"
    fill="#603CFF"
  />
</svg>
