<svg
  width="14"
  height="14"
  viewBox="0 0 14 14"
  fill="none"
  xmlns="http://www.w3.org/2000/svg"
>
  <path
    d="M9.91824 9.91372C9.7798 9.77604 9.71059 9.612 9.71059 9.42161C9.71059 9.23122 9.7798 9.06927 9.91824 8.93576L11.1642 7.69664H5.86288C5.66731 7.69664 5.5025 7.62969 5.36845 7.4958C5.23441 7.36189 5.16738 7.19725 5.16738 7.00189C5.16738 6.80651 5.23441 6.64289 5.36845 6.51103C5.5025 6.37917 5.66731 6.31324 5.86288 6.31324H11.129L9.85564 5.04679C9.72891 4.92645 9.6672 4.77265 9.6705 4.5854C9.67381 4.39816 9.74594 4.23539 9.88688 4.09709C10.0188 3.95879 10.1838 3.89129 10.3817 3.89459C10.5797 3.89787 10.7479 3.96835 10.8863 4.10603L13.3308 6.53723C13.402 6.6097 13.4544 6.68742 13.488 6.77039C13.5217 6.85338 13.5385 6.93852 13.5385 7.02583C13.5385 7.11314 13.5217 7.19726 13.488 7.27817C13.4544 7.35909 13.402 7.43556 13.3308 7.50759L10.8939 9.93118C10.7672 10.0572 10.6092 10.1202 10.4198 10.1202C10.2305 10.1202 10.0633 10.0514 9.91824 9.91372ZM1.86248 13.5385C1.47922 13.5385 1.14992 13.4025 0.874571 13.1306C0.599222 12.8587 0.461548 12.5335 0.461548 12.1551V1.85482C0.461548 1.47365 0.599222 1.14615 0.874571 0.8723C1.14992 0.598465 1.47922 0.461548 1.86248 0.461548H6.34612C6.54169 0.461548 6.7065 0.530428 6.84055 0.66819C6.97459 0.805963 7.04162 0.972248 7.04162 1.16704C7.04162 1.36184 6.97459 1.52517 6.84055 1.65703C6.7065 1.78889 6.54169 1.85482 6.34612 1.85482H1.86248V12.1551H6.34612C6.54169 12.1551 6.7065 12.222 6.84055 12.3559C6.97459 12.4898 7.04162 12.6545 7.04162 12.8498C7.04162 13.0452 6.97459 13.2088 6.84055 13.3407C6.7065 13.4725 6.54169 13.5385 6.34612 13.5385H1.86248Z"
    fill="#1B2559"
  />
</svg>
