<svg
  width="193"
  height="26"
  viewBox="0 0 193 26"
  fill="none"
  xmlns="http://www.w3.org/2000/svg"
>
  <path
    d="M1.03866 12.848C1.03866 11.0453 1.42866 9.442 2.20866 8.038C2.98866 6.61667 4.072 5.516 5.45866 4.736C6.86266 3.93867 8.44866 3.54 10.2167 3.54C12.3833 3.54 14.238 4.112 15.7807 5.256C17.3233 6.4 18.3547 7.96 18.8747 9.936H13.9867C13.6227 9.17333 13.1027 8.59267 12.4267 8.194C11.768 7.79533 11.014 7.596 10.1647 7.596C8.79533 7.596 7.686 8.07267 6.83666 9.026C5.98733 9.97933 5.56266 11.2533 5.56266 12.848C5.56266 14.4427 5.98733 15.7167 6.83666 16.67C7.686 17.6233 8.79533 18.1 10.1647 18.1C11.014 18.1 11.768 17.9007 12.4267 17.502C13.1027 17.1033 13.6227 16.5227 13.9867 15.76H18.8747C18.3547 17.736 17.3233 19.296 15.7807 20.44C14.238 21.5667 12.3833 22.13 10.2167 22.13C8.44866 22.13 6.86266 21.74 5.45866 20.96C4.072 20.1627 2.98866 19.062 2.20866 17.658C1.42866 16.254 1.03866 14.6507 1.03866 12.848ZM26.0434 18.568H31.8674V22H21.5974V3.748H26.0434V18.568ZM42.62 22.182C40.904 22.182 39.3266 21.7833 37.888 20.986C36.4666 20.1887 35.3313 19.0793 34.482 17.658C33.65 16.2193 33.234 14.6073 33.234 12.822C33.234 11.0367 33.65 9.43333 34.482 8.012C35.3313 6.59067 36.4666 5.48133 37.888 4.684C39.3266 3.88667 40.904 3.488 42.62 3.488C44.336 3.488 45.9046 3.88667 47.326 4.684C48.7646 5.48133 49.8913 6.59067 50.706 8.012C51.538 9.43333 51.954 11.0367 51.954 12.822C51.954 14.6073 51.538 16.2193 50.706 17.658C49.874 19.0793 48.7473 20.1887 47.326 20.986C45.9046 21.7833 44.336 22.182 42.62 22.182ZM42.62 18.126C44.076 18.126 45.2373 17.6407 46.104 16.67C46.988 15.6993 47.43 14.4167 47.43 12.822C47.43 11.21 46.988 9.92733 46.104 8.974C45.2373 8.00333 44.076 7.518 42.62 7.518C41.1466 7.518 39.968 7.99467 39.084 8.948C38.2173 9.90133 37.784 11.1927 37.784 12.822C37.784 14.434 38.2173 15.7253 39.084 16.696C39.968 17.6493 41.1466 18.126 42.62 18.126ZM58.7954 3.748V14.668C58.7954 15.76 59.0641 16.6007 59.6014 17.19C60.1388 17.7793 60.9274 18.074 61.9674 18.074C63.0074 18.074 63.8048 17.7793 64.3594 17.19C64.9141 16.6007 65.1914 15.76 65.1914 14.668V3.748H69.6374V14.642C69.6374 16.2713 69.2908 17.6493 68.5974 18.776C67.9041 19.9027 66.9681 20.752 65.7894 21.324C64.6281 21.896 63.3281 22.182 61.8894 22.182C60.4508 22.182 59.1594 21.9047 58.0154 21.35C56.8888 20.778 55.9961 19.9287 55.3374 18.802C54.6788 17.658 54.3494 16.2713 54.3494 14.642V3.748H58.7954ZM79.5975 3.748C81.5215 3.748 83.2028 4.12933 84.6415 4.892C86.0801 5.65467 87.1895 6.72933 87.9695 8.116C88.7668 9.48533 89.1655 11.0713 89.1655 12.874C89.1655 14.6593 88.7668 16.2453 87.9695 17.632C87.1895 19.0187 86.0715 20.0933 84.6155 20.856C83.1768 21.6187 81.5041 22 79.5975 22H72.7595V3.748H79.5975ZM79.3115 18.152C80.9928 18.152 82.3015 17.6927 83.2375 16.774C84.1735 15.8553 84.6415 14.5553 84.6415 12.874C84.6415 11.1927 84.1735 9.884 83.2375 8.948C82.3015 8.012 80.9928 7.544 79.3115 7.544H77.2055V18.152H79.3115ZM90.8961 12.848C90.8961 11.0453 91.2861 9.442 92.0661 8.038C92.8461 6.61667 93.9294 5.516 95.3161 4.736C96.7201 3.93867 98.3061 3.54 100.074 3.54C102.241 3.54 104.095 4.112 105.638 5.256C107.181 6.4 108.212 7.96 108.732 9.936H103.844C103.48 9.17333 102.96 8.59267 102.284 8.194C101.625 7.79533 100.871 7.596 100.022 7.596C98.6528 7.596 97.5434 8.07267 96.6941 9.026C95.8448 9.97933 95.4201 11.2533 95.4201 12.848C95.4201 14.4427 95.8448 15.7167 96.6941 16.67C97.5434 17.6233 98.6528 18.1 100.022 18.1C100.871 18.1 101.625 17.9007 102.284 17.502C102.96 17.1033 103.48 16.5227 103.844 15.76H108.732C108.212 17.736 107.181 19.296 105.638 20.44C104.095 21.5667 102.241 22.13 100.074 22.13C98.3061 22.13 96.7201 21.74 95.3161 20.96C93.9294 20.1627 92.8461 19.062 92.0661 17.658C91.2861 16.254 90.8961 14.6507 90.8961 12.848ZM127.263 3.748V22H122.817V14.486H115.901V22H111.455V3.748H115.901V10.898H122.817V3.748H127.263ZM141.834 18.776H135.022L133.93 22H129.276L135.88 3.748H141.028L147.632 22H142.926L141.834 18.776ZM140.69 15.344L138.428 8.662L136.192 15.344H140.69ZM162.772 3.748V7.31H157.936V22H153.49V7.31H148.654V3.748H162.772ZM181.615 17.97H173.711L172.255 22H169.759L176.311 3.982H179.041L185.567 22H183.071L181.615 17.97ZM180.939 16.046L177.663 6.894L174.387 16.046H180.939ZM190.789 3.878V22H188.423V3.878H190.789Z"
    fill="#1B2559"
  />
</svg>
